<?xml version="1.0" encoding="UTF-8"?>
<svg xmlns="http://www.w3.org/2000/svg" xmlns:xlink="http://www.w3.org/1999/xlink" viewBox="0 0 144 144" width="144px" height="144px">
<g id="surface1562971">
<path style=" stroke:none;fill-rule:nonzero;fill:rgb(90.588236%,29.803923%,23.529412%);fill-opacity:1;" d="M 72 12 C 38.863281 12 12 38.863281 12 72 C 12 105.136719 38.863281 132 72 132 C 105.136719 132 132 105.136719 132 72 C 132 38.863281 105.136719 12 72 12 Z M 60 96 C 46.746094 96 36 85.253906 36 72 C 36 58.746094 46.746094 48 60 48 C 66.253906 48 71.890625 50.449219 76.164062 54.367188 L 69.605469 60.570312 C 67.003906 58.375 63.679688 57 60 57 C 51.714844 57 45 63.714844 45 72 C 45 80.285156 51.714844 87 60 87 C 67.253906 87 73.308594 81.847656 74.699219 75 L 60 75 L 60 66 L 83.152344 66 C 83.652344 67.925781 84 69.917969 84 72 C 84 85.253906 73.253906 96 60 96 Z M 108 72 L 108 81 L 102 81 L 102 72 L 93 72 L 93 66 L 102 66 L 102 57 L 108 57 L 108 66 L 117 66 L 117 72 Z M 120 72 C 120 98.507812 98.507812 120 72 120 C 45.492188 120 24 98.507812 24 72 C 24 45.492188 45.492188 24 72 24 C 98.507812 24 120 45.492188 120 72 Z M 120 72 "/>
</g>
</svg>
