<?xml version="1.0" encoding="UTF-8"?>
<svg xmlns="http://www.w3.org/2000/svg" xmlns:xlink="http://www.w3.org/1999/xlink" viewBox="0 0 150 150" width="150px" height="150px">
<g id="surface1570493">
<path style=" stroke:none;fill-rule:nonzero;fill:rgb(20.392157%,59.607846%,85.882354%);fill-opacity:1;" d="M 75 6 C 36.929688 6 6 36.929688 6 75 C 6 113.070312 36.929688 144 75 144 C 113.070312 144 144 113.070312 144 75 C 144 36.929688 113.070312 6 75 6 Z M 75 12 C 109.828125 12 138 40.171875 138 75 C 138 109.828125 109.828125 138 75 138 C 40.171875 138 12 109.828125 12 75 C 12 40.171875 40.171875 12 75 12 Z M 48 36 C 43.066406 36 39 40.066406 39 45 C 39 49.933594 43.066406 54 48 54 C 52.933594 54 57 49.933594 57 45 C 57 40.066406 52.933594 36 48 36 Z M 48 42 C 49.691406 42 51 43.308594 51 45 C 51 46.691406 49.691406 48 48 48 C 46.308594 48 45 46.691406 45 45 C 45 43.308594 46.308594 42 48 42 Z M 42 57 C 40.34375 57 39 58.34375 39 60 L 39 105 C 39 106.65625 40.34375 108 42 108 L 54 108 C 55.65625 108 57 106.65625 57 105 L 57 60 C 57 58.34375 55.65625 57 54 57 Z M 66 57 C 64.34375 57 63 58.34375 63 60 L 63 105 C 63 106.65625 64.34375 108 66 108 L 78 108 C 79.65625 108 81 106.65625 81 105 L 81 82.5 C 81 78.363281 84.363281 75 88.5 75 C 92.636719 75 96 78.363281 96 82.5 L 96 105 C 96 106.65625 97.34375 108 99 108 L 111 108 C 112.65625 108 114 106.65625 114 105 L 114 79.5 C 114 67.109375 103.890625 57 91.5 57 C 87.640625 57 84.179688 58.25 81 59.96875 C 80.984375 58.324219 79.644531 57 78 57 Z M 45 63 L 51 63 L 51 102 L 45 102 Z M 69 63 L 75 63 L 75 65.449219 C 75 66.652344 75.71875 67.738281 76.824219 68.210938 C 77.933594 68.679688 79.214844 68.445312 80.078125 67.613281 C 83.050781 64.757812 87.050781 63 91.5 63 C 100.648438 63 108 70.351562 108 79.5 L 108 102 L 102 102 L 102 82.5 C 102 75.089844 95.910156 69 88.5 69 C 81.089844 69 75 75.089844 75 82.5 L 75 102 L 69 102 Z M 69 63 "/>
</g>
</svg>
